<?xml version="1.0" encoding="utf-8"?>
<!-- Generator: Adobe Illustrator 16.0.0, SVG Export Plug-In . SVG Version: 6.00 Build 0)  -->
<!DOCTYPE svg PUBLIC "-//W3C//DTD SVG 1.1//EN" "http://www.w3.org/Graphics/SVG/1.1/DTD/svg11.dtd">
<svg version="1.1" id="Layer_1" xmlns="http://www.w3.org/2000/svg" xmlns:xlink="http://www.w3.org/1999/xlink" x="0px" y="0px"
	 width="2399.55px" height="448.937px" viewBox="0 0 2399.55 448.937" enable-background="new 0 0 2399.55 448.937"
	 xml:space="preserve">
<rect x="2.835" y="207.193" fill="#FFFFFF" width="111.319" height="113.521"/>
<g>
	<defs>
		<rect id="SVGID_1_" width="2399.551" height="448.937"/>
	</defs>
	<clipPath id="SVGID_2_">
		<use xlink:href="#SVGID_1_"  overflow="visible"/>
	</clipPath>
	
		<rect x="2.835" y="207.193" clip-path="url(#SVGID_2_)" fill="none" stroke="#231F20" stroke-width="5.669" width="111.319" height="113.521"/>
</g>
<rect x="114.154" y="120.554" fill="#FFFFFF" width="110.766" height="200.16"/>
<rect x="114.154" y="120.554" fill="none" stroke="#231F20" stroke-width="5.669" width="110.766" height="200.16"/>
<rect x="224.92" y="63.795" fill="#FFFFFF" width="217.099" height="256.919"/>
<rect x="224.92" y="63.795" fill="none" stroke="#231F20" stroke-width="5.669" width="217.099" height="256.919"/>
<rect x="442.019" y="63.795" fill="#FFFFFF" width="217.099" height="256.919"/>
<rect x="442.019" y="63.795" fill="none" stroke="#231F20" stroke-width="5.669" width="217.099" height="256.919"/>
<rect x="659.118" y="63.795" fill="#FFFFFF" width="217.099" height="256.919"/>
<rect x="659.118" y="63.795" fill="none" stroke="#231F20" stroke-width="5.669" width="217.099" height="256.919"/>
<rect x="876.217" y="2.835" fill="#FFFFFF" width="209.745" height="317.879"/>
<g>
	<defs>
		<rect id="SVGID_3_" width="2399.551" height="448.937"/>
	</defs>
	<clipPath id="SVGID_4_">
		<use xlink:href="#SVGID_3_"  overflow="visible"/>
	</clipPath>
	
		<rect x="876.217" y="2.835" clip-path="url(#SVGID_4_)" fill="none" stroke="#231F20" stroke-width="5.669" width="209.745" height="317.879"/>
</g>
<rect x="2.835" y="320.713" fill="#FFFFFF" width="1083.127" height="125.389"/>
<g>
	<defs>
		<rect id="SVGID_5_" width="2399.551" height="448.937"/>
	</defs>
	<clipPath id="SVGID_6_">
		<use xlink:href="#SVGID_5_"  overflow="visible"/>
	</clipPath>
	
		<rect x="2.835" y="320.713" clip-path="url(#SVGID_6_)" fill="none" stroke="#231F20" stroke-width="5.669" width="1083.127" height="125.389"/>
</g>
<rect x="2285.396" y="207.193" fill="#FFFFFF" width="111.319" height="113.521"/>
<g>
	<defs>
		<rect id="SVGID_7_" width="2399.551" height="448.937"/>
	</defs>
	<clipPath id="SVGID_8_">
		<use xlink:href="#SVGID_7_"  overflow="visible"/>
	</clipPath>
	
		<rect x="2285.396" y="207.193" clip-path="url(#SVGID_8_)" fill="none" stroke="#231F20" stroke-width="5.669" width="111.319" height="113.521"/>
</g>
<rect x="2174.632" y="120.554" fill="#FFFFFF" width="110.767" height="200.16"/>
<rect x="2174.632" y="120.554" fill="none" stroke="#231F20" stroke-width="5.669" width="110.767" height="200.16"/>
<rect x="1957.533" y="63.795" fill="#FFFFFF" width="217.099" height="256.919"/>
<rect x="1957.533" y="63.795" fill="none" stroke="#231F20" stroke-width="5.669" width="217.099" height="256.919"/>
<rect x="1740.434" y="63.795" fill="#FFFFFF" width="217.1" height="256.919"/>
<rect x="1740.434" y="63.795" fill="none" stroke="#231F20" stroke-width="5.669" width="217.1" height="256.919"/>
<rect x="1523.335" y="63.795" fill="#FFFFFF" width="217.099" height="256.919"/>
<rect x="1523.335" y="63.795" fill="none" stroke="#231F20" stroke-width="5.669" width="217.099" height="256.919"/>
<rect x="1313.589" y="2.835" fill="#FFFFFF" width="209.745" height="317.879"/>
<g>
	<defs>
		<rect id="SVGID_9_" width="2399.551" height="448.937"/>
	</defs>
	<clipPath id="SVGID_10_">
		<use xlink:href="#SVGID_9_"  overflow="visible"/>
	</clipPath>
	
		<rect x="1313.589" y="2.835" clip-path="url(#SVGID_10_)" fill="none" stroke="#231F20" stroke-width="5.669" width="209.745" height="317.879"/>
</g>
<rect x="1313.589" y="320.713" fill="#FFFFFF" width="1083.127" height="125.389"/>
<g>
	<defs>
		<rect id="SVGID_11_" width="2399.551" height="448.937"/>
	</defs>
	<clipPath id="SVGID_12_">
		<use xlink:href="#SVGID_11_"  overflow="visible"/>
	</clipPath>
	
		<rect x="1313.589" y="320.713" clip-path="url(#SVGID_12_)" fill="none" stroke="#231F20" stroke-width="5.669" width="1083.127" height="125.389"/>
</g>
</svg>
